#!OML:ASF C:\Vicon Data\Big\jianyuan-13\jianyuan\Session 1\Capture.male.ASF
:FULLY-SPECIFIED
:DEGREES
237
root -4.462696 17.469712 -8.346121 1.366609 10.806167 0.289724
lowerback -9.342843 -0.350842 -2.738326 
upperback 3.010043 -0.030224 -1.137200 
thorax 8.450903 -0.125013 0.331070 
lowerneck -1.098733 -3.301259 1.680152 
upperneck 17.370852 -4.236339 -2.406452 
head 5.313393 -2.118640 -1.233495 
rclavicle 0.000000 0.000000 
rhumerus -39.549875 -18.643610 -77.202032 
rradius 38.233506 
rwrist 23.848769 
rhand -19.084663 -18.028698 
rfingers 0.000000 
rthumb 7.223416 -47.885398 
lclavicle 0.000000 0.000000 
lhumerus -38.391860 34.331984 67.169539 
lradius 25.965504 
lwrist -58.259679 
lhand -18.430852 -0.054819 
lfingers 0.000000 
lthumb 7.854484 29.779224 
rfemur -58.042830 -4.995790 17.003751 
rtibia 60.112589 
rfoot -7.258370 -5.146675 
rtoes -39.062725 
lfemur 3.522261 -4.451033 -25.313249 
ltibia 16.226626 
lfoot -18.331740 -0.786234 
ltoes -28.865916 
238
root -4.463067 17.456495 -8.276752 1.481069 10.861400 0.346489
lowerback -9.444437 -0.383178 -2.745325 
upperback 2.989564 -0.075796 -1.055577 
thorax 8.489210 -0.150227 0.413654 
lowerneck -0.985229 -3.232931 1.305235 
upperneck 17.268886 -4.152131 -2.179427 
head 5.278095 -2.086145 -1.093576 
rclavicle 0.000000 0.000000 
rhumerus -39.472343 -18.579586 -77.075653 
rradius 38.135538 
rwrist 23.876336 
rhand -19.098608 -17.994600 
rfingers 0.000000 
rthumb 7.209949 -47.851785 
lclavicle 0.000000 0.000000 
lhumerus -38.564641 34.454881 67.196794 
lradius 26.020537 
lwrist -58.660682 
lhand -18.614057 -0.031180 
lfingers 0.000000 
lthumb 7.677669 29.809401 
rfemur -57.178406 -4.738546 16.888064 
rtibia 59.504339 
rfoot -7.094659 -5.456470 
rtoes -38.628620 
lfemur 3.521453 -4.403929 -25.329052 
ltibia 16.507405 
lfoot -18.529483 -0.915886 
ltoes -28.868923 
239
root -4.466099 17.441516 -8.203874 1.619099 10.936186 0.466863
lowerback -9.587973 -0.356708 -2.803088 
upperback 2.995577 -0.022144 -1.116816 
thorax 8.578174 -0.126288 0.389356 
lowerneck -1.197034 -3.325079 1.685915 
upperneck 17.381792 -4.263367 -2.449745 
head 5.331645 -2.134086 -1.251264 
rclavicle 0.000000 0.000000 
rhumerus -39.426449 -18.806333 -77.093591 
rradius 38.042618 
rwrist 23.972846 
rhand -19.103126 -18.031354 
rfingers 0.000000 
rthumb 7.205617 -47.888644 
lclavicle 0.000000 0.000000 
lhumerus -38.329383 34.011819 67.435888 
lradius 26.057808 
lwrist -57.978303 
lhand -18.526114 0.052577 
lfingers 0.000000 
lthumb 7.762586 29.890089 
rfemur -56.278021 -4.603128 16.806516 
rtibia 58.834343 
rfoot -6.900885 -5.697669 
rtoes -38.766970 
lfemur 3.512013 -4.426188 -25.410932 
ltibia 16.807193 
lfoot -18.766500 -0.973332 
ltoes -29.362774 
240
root -4.470026 17.429868 -8.131469 1.770230 10.998874 0.527463
lowerback -9.712693 -0.382463 -2.813224 
upperback 2.958401 -0.054088 -1.083159 
thorax 8.611524 -0.143420 0.425060 
lowerneck -1.021559 -3.259980 1.437191 
upperneck 17.241240 -4.198071 -2.175607 
head 5.272040 -2.100012 -1.116468 
rclavicle 0.000000 0.000000 
rhumerus -39.395733 -18.674947 -77.129208 
rradius 38.046245 
rwrist 23.793139 
rhand -19.032261 -18.138341 
rfingers 0.000000 
rthumb 7.274034 -47.993330 
lclavicle 0.000000 0.000000 
lhumerus -38.469841 34.181468 67.363995 
lradius 26.065559 
lwrist -58.178543 
lhand -18.503985 -0.067560 
lfingers 0.000000 
lthumb 7.783957 29.769174 
rfemur -55.361583 -4.347708 16.701873 
rtibia 58.041568 
rfoot -6.546977 -5.992780 
rtoes -38.364010 
lfemur 3.468329 -4.391565 -25.408951 
ltibia 17.129736 
lfoot -18.981239 -1.127620 
ltoes -29.401590 
241
root -4.476292 17.418328 -8.055726 1.964520 11.108760 0.570115
lowerback -9.940120 -0.400252 -2.888454 
upperback 2.948712 -0.064719 -1.015776 
thorax 8.734385 -0.155899 0.536077 
lowerneck -1.125410 -3.312555 1.529034 
upperneck 17.257758 -4.248520 -2.359640 
head 5.287098 -2.130574 -1.193281 
rclavicle 0.000000 0.000000 
rhumerus -39.326036 -18.853367 -76.985430 
rradius 37.964583 
rwrist 23.977489 
rhand -18.901120 -18.065609 
rfingers 0.000000 
rthumb 7.400611 -47.916209 
lclavicle 0.000000 0.000000 
lhumerus -38.388761 33.933125 67.683227 
lradius 26.196947 
lwrist -57.869072 
lhand -18.516937 0.131134 
lfingers 0.000000 
lthumb 7.771416 29.968347 
rfemur -54.456355 -4.145151 16.667425 
rtibia 57.194841 
rfoot -6.180117 -6.302619 
rtoes -38.017711 
lfemur 3.411633 -4.323110 -25.345792 
ltibia 17.374601 
lfoot -19.129622 -1.375558 
ltoes -29.310000 
242
root -4.479593 17.406568 -7.983520 2.114127 11.209258 0.721002
lowerback -10.030488 -0.381964 -2.888393 
upperback 2.915723 -0.027103 -1.139303 
thorax 8.750087 -0.133694 0.411051 
lowerneck -0.964798 -3.329702 1.602913 
upperneck 17.183538 -4.307743 -2.138084 
head 5.239790 -2.140686 -1.134925 
rclavicle 0.000000 0.000000 
rhumerus -39.340269 -18.946806 -77.165495 
rradius 37.917760 
rwrist 23.938030 
rhand -18.930796 -18.146653 
rfingers 0.000000 
rthumb 7.371927 -47.998285 
lclavicle 0.000000 0.000000 
lhumerus -38.365375 33.904073 67.502781 
lradius 26.145974 
lwrist -58.071482 
lhand -18.667203 0.071715 
lfingers 0.000000 
lthumb 7.626359 29.914188 
rfemur -53.496961 -3.928348 16.468954 
rtibia 56.307173 
rfoot -5.778661 -6.537186 
rtoes -37.894221 
lfemur 3.485029 -4.243543 -25.414533 
ltibia 17.482440 
lfoot -19.191896 -1.624954 
ltoes -29.055239 
243
root -4.482499 17.397277 -7.909558 2.315580 11.320526 0.832682
lowerback -10.207430 -0.380998 -3.050175 
upperback 2.881082 -0.006014 -1.037928 
thorax 8.815728 -0.135822 0.613091 
lowerneck -0.978803 -3.375876 1.531200 
upperneck 17.196959 -4.351867 -2.226679 
head 5.244820 -2.171736 -1.153031 
rclavicle 0.000000 0.000000 
rhumerus -39.331680 -18.888455 -77.005603 
rradius 37.918647 
rwrist 23.914905 
rhand -19.038070 -18.153329 
rfingers 0.000000 
rthumb 7.268409 -48.008482 
lclavicle 0.000000 0.000000 
lhumerus -38.305830 33.791165 67.837609 
lradius 26.197689 
lwrist -57.850431 
lhand -18.562605 -0.000078 
lfingers 0.000000 
lthumb 7.727303 29.838731 
rfemur -52.609862 -3.708683 16.284880 
rtibia 55.379266 
rfoot -5.416530 -6.720190 
rtoes -37.203290 
lfemur 3.508246 -4.191036 -25.436303 
ltibia 17.557339 
lfoot -19.208245 -1.834946 
ltoes -29.017869 
244
root -4.487875 17.385087 -7.836865 2.576613 11.401528 0.959161
lowerback -10.393579 -0.375951 -3.115395 
upperback 2.805429 0.017432 -1.059916 
thorax 8.841465 -0.126942 0.630375 
lowerneck -1.076272 -3.423447 1.616597 
upperneck 17.368034 -4.418853 -2.252549 
head 5.310594 -2.200213 -1.182926 
rclavicle 0.000000 0.000000 
rhumerus -39.367831 -18.934089 -77.021158 
rradius 37.872407 
rwrist 24.071999 
rhand -19.141165 -18.131381 
rfingers 0.000000 
rthumb 7.168908 -47.990020 
lclavicle 0.000000 0.000000 
lhumerus -38.287679 33.726060 67.890039 
lradius 26.280456 
lwrist -57.593046 
lhand -18.424217 0.014826 
lfingers 0.000000 
lthumb 7.860887 29.848647 
rfemur -51.813164 -3.552184 16.153144 
rtibia 54.434093 
rfoot -5.009236 -6.804470 
rtoes -36.980176 
lfemur 3.468969 -4.163247 -25.481326 
ltibia 17.629899 
lfoot -19.287799 -1.950550 
ltoes -29.293380 
